<svg xmlns="http://www.w3.org/2000/svg" xmlns:xlink="http://www.w3.org/1999/xlink" width="500" zoomAndPan="magnify" viewBox="0 0 375 374.999991" height="500" preserveAspectRatio="xMidYMid meet" version="1.0"><defs><clipPath id="bd82034449"><path d="M 0 19.359375 L 161.414062 19.359375 L 161.414062 180.777344 L 0 180.777344 Z M 0 19.359375 " clip-rule="nonzero"/></clipPath><clipPath id="8967750680"><path d="M 80.707031 19.359375 C 36.132812 19.359375 0 55.496094 0 100.066406 C 0 144.640625 36.132812 180.777344 80.707031 180.777344 C 125.28125 180.777344 161.414062 144.640625 161.414062 100.066406 C 161.414062 55.496094 125.28125 19.359375 80.707031 19.359375 Z M 80.707031 19.359375 " clip-rule="nonzero"/></clipPath><clipPath id="c55f72c11f"><path d="M 0 19.359375 L 161.25 19.359375 L 161.25 180.609375 L 0 180.609375 Z M 0 19.359375 " clip-rule="nonzero"/></clipPath><clipPath id="29b544c61c"><path d="M 80.707031 19.359375 C 36.132812 19.359375 0 55.496094 0 100.066406 C 0 144.640625 36.132812 180.773438 80.707031 180.773438 C 125.28125 180.773438 161.414062 144.640625 161.414062 100.066406 C 161.414062 55.496094 125.28125 19.359375 80.707031 19.359375 Z M 80.707031 19.359375 " clip-rule="nonzero"/></clipPath><clipPath id="4d2442080c"><path d="M 42 77 L 71 77 L 71 106 L 42 106 Z M 42 77 " clip-rule="nonzero"/></clipPath><clipPath id="b1aab05781"><path d="M 37.363281 84.792969 L 63.222656 72.683594 L 75.335938 98.542969 L 49.476562 110.652344 Z M 37.363281 84.792969 " clip-rule="nonzero"/></clipPath><clipPath id="719648b26f"><path d="M 50.292969 78.738281 C 43.152344 82.082031 40.074219 90.582031 43.421875 97.722656 C 46.765625 104.863281 55.265625 107.941406 62.40625 104.597656 C 69.546875 101.253906 72.625 92.753906 69.277344 85.613281 C 65.933594 78.472656 57.433594 75.394531 50.292969 78.738281 Z M 50.292969 78.738281 " clip-rule="nonzero"/></clipPath><clipPath id="c8a9ac37c4"><path d="M 42 77 L 71 77 L 71 106 L 42 106 Z M 42 77 " clip-rule="nonzero"/></clipPath><clipPath id="da21c78ba2"><path d="M 37.363281 84.792969 L 63.171875 72.707031 L 75.261719 98.515625 L 49.453125 110.605469 Z M 37.363281 84.792969 " clip-rule="nonzero"/></clipPath><clipPath id="397d7a6950"><path d="M 37.363281 84.792969 L 63.214844 72.6875 L 75.324219 98.539062 L 49.472656 110.644531 Z M 37.363281 84.792969 " clip-rule="nonzero"/></clipPath><clipPath id="0d000d5aee"><path d="M 50.289062 78.738281 C 43.152344 82.082031 40.074219 90.582031 43.417969 97.71875 C 46.761719 104.859375 55.257812 107.933594 62.398438 104.589844 C 69.539062 101.246094 72.613281 92.75 69.269531 85.613281 C 65.925781 78.472656 57.429688 75.394531 50.289062 78.738281 Z M 50.289062 78.738281 " clip-rule="nonzero"/></clipPath><clipPath id="6bbd9edb31"><path d="M 73 62 L 103 62 L 103 92 L 73 92 Z M 73 62 " clip-rule="nonzero"/></clipPath><clipPath id="acc9c791bb"><path d="M 68.761719 70.089844 L 94.621094 57.976562 L 106.734375 83.835938 L 80.875 95.945312 Z M 68.761719 70.089844 " clip-rule="nonzero"/></clipPath><clipPath id="d34c4ec198"><path d="M 81.691406 64.03125 C 74.550781 67.375 71.472656 75.875 74.816406 83.019531 C 78.164062 90.160156 86.664062 93.234375 93.804688 89.890625 C 100.945312 86.546875 104.023438 78.046875 100.675781 70.90625 C 97.332031 63.765625 88.832031 60.6875 81.691406 64.03125 Z M 81.691406 64.03125 " clip-rule="nonzero"/></clipPath><clipPath id="269e232ba8"><path d="M 73 62 L 103 62 L 103 92 L 73 92 Z M 73 62 " clip-rule="nonzero"/></clipPath><clipPath id="627162067b"><path d="M 68.761719 70.089844 L 94.570312 58 L 106.660156 83.808594 L 80.851562 95.898438 Z M 68.761719 70.089844 " clip-rule="nonzero"/></clipPath><clipPath id="2d14aa5774"><path d="M 68.761719 70.089844 L 94.613281 57.980469 L 106.722656 83.832031 L 80.871094 95.941406 Z M 68.761719 70.089844 " clip-rule="nonzero"/></clipPath><clipPath id="6b4352e3e1"><path d="M 81.6875 64.035156 C 74.550781 67.378906 71.472656 75.875 74.816406 83.015625 C 78.160156 90.152344 86.65625 93.230469 93.796875 89.886719 C 100.933594 86.542969 104.011719 78.042969 100.667969 70.90625 C 97.324219 63.765625 88.828125 60.691406 81.6875 64.035156 Z M 81.6875 64.035156 " clip-rule="nonzero"/></clipPath><clipPath id="06fd7182e7"><path d="M 56 109 L 86 109 L 86 138 L 56 138 Z M 56 109 " clip-rule="nonzero"/></clipPath><clipPath id="4568865a98"><path d="M 52.285156 116.648438 L 78.144531 104.535156 L 90.253906 130.394531 L 64.394531 142.507812 Z M 52.285156 116.648438 " clip-rule="nonzero"/></clipPath><clipPath id="4ef7585f1f"><path d="M 65.214844 110.589844 C 58.074219 113.9375 54.996094 122.4375 58.339844 129.578125 C 61.683594 136.71875 70.183594 139.792969 77.324219 136.449219 C 84.464844 133.105469 87.542969 124.605469 84.199219 117.464844 C 80.855469 110.324219 72.355469 107.246094 65.214844 110.589844 Z M 65.214844 110.589844 " clip-rule="nonzero"/></clipPath><clipPath id="ea2be9985d"><path d="M 56 109 L 86 109 L 86 138 L 56 138 Z M 56 109 " clip-rule="nonzero"/></clipPath><clipPath id="2cbbf00a26"><path d="M 52.285156 116.648438 L 78.09375 104.558594 L 90.179688 130.367188 L 64.371094 142.457031 Z M 52.285156 116.648438 " clip-rule="nonzero"/></clipPath><clipPath id="0f7602cc16"><path d="M 52.285156 116.648438 L 78.136719 104.539062 L 90.242188 130.390625 L 64.390625 142.5 Z M 52.285156 116.648438 " clip-rule="nonzero"/></clipPath><clipPath id="0267f6742a"><path d="M 65.210938 110.59375 C 58.070312 113.9375 54.992188 122.433594 58.335938 129.574219 C 61.679688 136.710938 70.179688 139.789062 77.316406 136.445312 C 84.457031 133.101562 87.53125 124.601562 84.1875 117.464844 C 80.847656 110.324219 72.347656 107.25 65.210938 110.59375 Z M 65.210938 110.59375 " clip-rule="nonzero"/></clipPath><clipPath id="1cb74418a4"><path d="M 89 94 L 118 94 L 118 123 L 89 123 Z M 89 94 " clip-rule="nonzero"/></clipPath><clipPath id="b954be9eaa"><path d="M 84.429688 101.589844 L 110.289062 89.476562 L 122.402344 115.335938 L 96.542969 127.449219 Z M 84.429688 101.589844 " clip-rule="nonzero"/></clipPath><clipPath id="f0a77dfe90"><path d="M 97.359375 95.535156 C 90.21875 98.878906 87.140625 107.378906 90.484375 114.519531 C 93.832031 121.660156 102.332031 124.738281 109.472656 121.394531 C 116.613281 118.046875 119.691406 109.546875 116.34375 102.40625 C 113 95.265625 104.5 92.191406 97.359375 95.535156 Z M 97.359375 95.535156 " clip-rule="nonzero"/></clipPath><clipPath id="35e2b298bc"><path d="M 89 94 L 118 94 L 118 123 L 89 123 Z M 89 94 " clip-rule="nonzero"/></clipPath><clipPath id="8f018f015e"><path d="M 84.429688 101.589844 L 110.238281 89.5 L 122.328125 115.3125 L 96.519531 127.398438 Z M 84.429688 101.589844 " clip-rule="nonzero"/></clipPath><clipPath id="b63afe9ea0"><path d="M 84.429688 101.589844 L 110.28125 89.480469 L 122.390625 115.332031 L 96.539062 127.441406 Z M 84.429688 101.589844 " clip-rule="nonzero"/></clipPath><clipPath id="965a9828b1"><path d="M 97.355469 95.535156 C 90.214844 98.878906 87.140625 107.378906 90.484375 114.515625 C 93.828125 121.65625 102.324219 124.730469 109.464844 121.386719 C 116.601562 118.042969 119.679688 109.546875 116.335938 102.40625 C 112.992188 95.269531 104.496094 92.191406 97.355469 95.535156 Z M 97.355469 95.535156 " clip-rule="nonzero"/></clipPath><clipPath id="500e9c3614"><path d="M 215 23 L 375 23 L 375 177 L 215 177 Z M 215 23 " clip-rule="nonzero"/></clipPath><clipPath id="7ee626863d"><path d="M 300.78125 208.804688 L 187.449219 115.183594 L 290.140625 -9.136719 L 403.476562 84.484375 Z M 300.78125 208.804688 " clip-rule="nonzero"/></clipPath><clipPath id="0ec4c4e71b"><path d="M 300.78125 208.804688 L 187.449219 115.183594 L 290.140625 -9.136719 L 403.476562 84.484375 Z M 300.78125 208.804688 " clip-rule="nonzero"/></clipPath><clipPath id="8cd158fd82"><path d="M 314 228 L 374 228 L 374 288 L 314 288 Z M 314 228 " clip-rule="nonzero"/></clipPath><clipPath id="378102f328"><path d="M 343.730469 198.921875 L 403.125 258.320312 L 367.59375 293.851562 L 308.195312 234.457031 Z M 343.730469 198.921875 " clip-rule="nonzero"/></clipPath><clipPath id="5b296eccd1"><path d="M 343.730469 198.921875 L 403.125 258.320312 L 367.59375 293.851562 L 308.195312 234.457031 Z M 343.730469 198.921875 " clip-rule="nonzero"/></clipPath><clipPath id="736080b4bd"><path d="M 1 213 L 62 213 L 62 280 L 1 280 Z M 1 213 " clip-rule="nonzero"/></clipPath><clipPath id="25532f6a1f"><path d="M 87.738281 240.332031 L 34.65625 305.433594 L -4.289062 273.679688 L 48.792969 208.578125 Z M 87.738281 240.332031 " clip-rule="nonzero"/></clipPath><clipPath id="e4083aa64f"><path d="M 87.738281 240.332031 L 34.65625 305.433594 L -4.289062 273.679688 L 48.792969 208.578125 Z M 87.738281 240.332031 " clip-rule="nonzero"/></clipPath><clipPath id="7a5aff295a"><path d="M 162.1875 267.242188 L 212.4375 267.242188 L 212.4375 351.242188 L 162.1875 351.242188 Z M 162.1875 267.242188 " clip-rule="nonzero"/></clipPath><clipPath id="29e009dec5"><path d="M 234 264 L 295 264 L 295 341 L 234 341 Z M 234 264 " clip-rule="nonzero"/></clipPath><clipPath id="49df43955e"><path d="M 276.269531 246.335938 L 312.460938 322.136719 L 267.117188 343.789062 L 230.921875 267.984375 Z M 276.269531 246.335938 " clip-rule="nonzero"/></clipPath><clipPath id="727baefb29"><path d="M 276.269531 246.335938 L 312.460938 322.136719 L 267.117188 343.789062 L 230.921875 267.984375 Z M 276.269531 246.335938 " clip-rule="nonzero"/></clipPath><clipPath id="97e6c82318"><path d="M 62 247 L 123 247 L 123 323 L 62 323 Z M 62 247 " clip-rule="nonzero"/></clipPath><clipPath id="6e05151dd6"><path d="M 140.671875 265.019531 L 104.441406 340.804688 L 59.105469 319.128906 L 95.339844 243.34375 Z M 140.671875 265.019531 " clip-rule="nonzero"/></clipPath><clipPath id="9ff7fdc40a"><path d="M 140.671875 265.019531 L 104.441406 340.804688 L 59.105469 319.128906 L 95.339844 243.34375 Z M 140.671875 265.019531 " clip-rule="nonzero"/></clipPath></defs><g clip-path="url(#bd82034449)"><g clip-path="url(#8967750680)"><path fill="#4f5875" d="M 0 19.359375 L 161.414062 19.359375 L 161.414062 180.777344 L 0 180.777344 Z M 0 19.359375 " fill-opacity="1" fill-rule="nonzero"/></g></g><g clip-path="url(#c55f72c11f)"><g clip-path="url(#29b544c61c)"><path stroke-linecap="butt" transform="matrix(0.75, 0, 0, 0.75, 0.0000045, 19.360555)" fill="none" stroke-linejoin="miter" d="M 107.609376 -0.00157286 C 48.17708 -0.00157286 -0.000006 48.180722 -0.000006 107.607809 C -0.000006 167.040105 48.17708 215.217191 107.609376 215.217191 C 167.041672 215.217191 215.218758 167.040105 215.218758 107.607809 C 215.218758 48.180722 167.041672 -0.00157286 107.609376 -0.00157286 Z M 107.609376 -0.00157286 " stroke="#393f54" stroke-width="28" stroke-opacity="1" stroke-miterlimit="4"/></g></g><g clip-path="url(#4d2442080c)"><g clip-path="url(#b1aab05781)"><g clip-path="url(#719648b26f)"><path fill="#393f54" d="M 37.363281 84.792969 L 63.222656 72.683594 L 75.335938 98.542969 L 49.476562 110.652344 Z M 37.363281 84.792969 " fill-opacity="1" fill-rule="nonzero"/></g></g></g><g clip-path="url(#c8a9ac37c4)"><g clip-path="url(#da21c78ba2)"><g clip-path="url(#397d7a6950)"><g clip-path="url(#0d000d5aee)"><path stroke-linecap="butt" transform="matrix(0.679189, -0.318124, 0.318124, 0.679189, 37.364065, 84.794373)" fill="none" stroke-linejoin="miter" d="M 19.031288 -0.00262823 C 8.523012 -0.00142557 -0.000864588 8.521025 0.000338073 19.029302 C -0.00066846 29.542294 8.519275 38.059245 19.032268 38.060252 C 29.54526 38.061258 38.062211 29.541314 38.061009 19.033038 C 38.062015 8.520046 29.544281 -0.0016217 19.031288 -0.00262823 Z M 19.031288 -0.00262823 " stroke="#393f54" stroke-width="8" stroke-opacity="1" stroke-miterlimit="4"/></g></g></g></g><g clip-path="url(#6bbd9edb31)"><g clip-path="url(#acc9c791bb)"><g clip-path="url(#d34c4ec198)"><path fill="#393f54" d="M 68.761719 70.089844 L 94.621094 57.976562 L 106.734375 83.835938 L 80.875 95.945312 Z M 68.761719 70.089844 " fill-opacity="1" fill-rule="nonzero"/></g></g></g><g clip-path="url(#269e232ba8)"><g clip-path="url(#627162067b)"><g clip-path="url(#2d14aa5774)"><g clip-path="url(#6b4352e3e1)"><path stroke-linecap="butt" transform="matrix(0.679189, -0.318124, 0.318124, 0.679189, 68.761824, 70.088038)" fill="none" stroke-linejoin="miter" d="M 19.030291 0.00163123 C 8.522015 0.00283389 0.000347955 8.520568 -0.000658578 19.033561 C 0.000544083 29.541837 8.518279 38.063504 19.031271 38.064511 C 29.539547 38.063308 38.063424 29.540857 38.062221 19.032581 C 38.063228 8.519589 29.543284 0.00263776 19.030291 0.00163123 Z M 19.030291 0.00163123 " stroke="#393f54" stroke-width="8" stroke-opacity="1" stroke-miterlimit="4"/></g></g></g></g><g clip-path="url(#06fd7182e7)"><g clip-path="url(#4568865a98)"><g clip-path="url(#4ef7585f1f)"><path fill="#393f54" d="M 52.285156 116.648438 L 78.144531 104.535156 L 90.253906 130.394531 L 64.394531 142.507812 Z M 52.285156 116.648438 " fill-opacity="1" fill-rule="nonzero"/></g></g></g><g clip-path="url(#ea2be9985d)"><g clip-path="url(#2cbbf00a26)"><g clip-path="url(#0f7602cc16)"><g clip-path="url(#0267f6742a)"><path stroke-linecap="butt" transform="matrix(0.679189, -0.318124, 0.318124, 0.679189, 52.283526, 116.647149)" fill="none" stroke-linejoin="miter" d="M 19.03268 0.00198784 C 8.519687 0.000981312 -0.00198024 8.518716 -0.00298677 19.031708 C -0.00178411 29.539984 8.520667 38.063861 19.028943 38.062658 C 29.541936 38.063665 38.061096 29.539005 38.059893 19.030729 C 38.065616 8.519945 29.540956 0.000785184 19.03268 0.00198784 Z M 19.03268 0.00198784 " stroke="#393f54" stroke-width="8" stroke-opacity="1" stroke-miterlimit="4"/></g></g></g></g><g clip-path="url(#1cb74418a4)"><g clip-path="url(#b954be9eaa)"><g clip-path="url(#f0a77dfe90)"><path fill="#393f54" d="M 84.429688 101.589844 L 110.289062 89.476562 L 122.402344 115.335938 L 96.542969 127.449219 Z M 84.429688 101.589844 " fill-opacity="1" fill-rule="nonzero"/></g></g></g><g clip-path="url(#35e2b298bc)"><g clip-path="url(#8f018f015e)"><g clip-path="url(#b63afe9ea0)"><g clip-path="url(#965a9828b1)"><path stroke-linecap="butt" transform="matrix(0.679189, -0.318124, 0.318124, 0.679189, 84.429623, 101.590292)" fill="none" stroke-linejoin="miter" d="M 19.031771 -0.000994258 C 8.518779 -0.00200079 -0.000381521 8.522659 0.00082114 19.030935 C -0.000185393 29.543928 8.519758 38.060879 19.032751 38.061886 C 29.541027 38.060683 38.062694 29.542948 38.063701 19.029956 C 38.062498 8.52168 29.544764 0.0000122752 19.031771 -0.000994258 Z M 19.031771 -0.000994258 " stroke="#393f54" stroke-width="8" stroke-opacity="1" stroke-miterlimit="4"/></g></g></g></g><g clip-path="url(#500e9c3614)"><g clip-path="url(#7ee626863d)"><g clip-path="url(#0ec4c4e71b)"><path fill="#266637" d="M 346.707031 38 C 352.375 42.683594 353.183594 51.175781 348.5 56.847656 L 320.460938 90.792969 L 363.878906 98.039062 C 371.089844 99.226562 375.972656 106.195312 374.785156 113.40625 C 373.535156 120.691406 366.699219 125.5625 359.34375 124.253906 L 315.988281 116.933594 L 331.242188 158.273438 C 332.429688 161.574219 332.433594 165.125 330.878906 168.484375 C 329.371094 171.644531 326.664062 174.175781 323.433594 175.421875 C 320.207031 176.667969 316.570312 176.476562 313.28125 174.984375 C 310.0625 173.550781 307.589844 170.769531 306.34375 167.542969 L 290.96875 126.347656 L 262.988281 160.21875 C 258.304688 165.890625 249.882812 166.757812 244.214844 162.078125 C 238.617188 157.453125 237.808594 148.957031 242.492188 143.289062 L 270.589844 109.269531 L 226.96875 101.976562 C 223.503906 101.433594 220.441406 99.515625 218.351562 96.570312 C 216.335938 93.679688 215.535156 90.207031 216.003906 86.679688 C 216.542969 83.214844 218.59375 80.136719 221.410156 78.0625 C 224.300781 76.046875 227.90625 75.234375 231.371094 75.773438 L 274.859375 83.082031 L 259.484375 41.890625 C 256.882812 34.972656 260.449219 27.398438 267.363281 24.796875 C 270.667969 23.613281 274.214844 23.609375 277.519531 25.238281 C 280.734375 26.671875 283.210938 29.449219 284.457031 32.679688 L 299.890625 73.800781 L 327.992188 39.78125 C 332.613281 34.1875 341.109375 33.375 346.707031 38 Z M 346.707031 38 " fill-opacity="1" fill-rule="evenodd"/></g></g></g><path stroke-linecap="butt" transform="matrix(0.75, 0, 0, 0.75, 1.179165, 228.187149)" fill="none" stroke-linejoin="miter" d="M 7.073614 8.422344 C 168.172583 143.667144 329.271552 143.667144 490.365312 8.422344 " stroke="#c81129" stroke-width="22" stroke-opacity="1" stroke-miterlimit="4"/><g clip-path="url(#8cd158fd82)"><g clip-path="url(#378102f328)"><g clip-path="url(#5b296eccd1)"><path fill="#c81129" d="M 314.179688 239.574219 L 314.179688 228.5625 L 373.582031 228.5625 L 373.582031 287.96875 L 362.570312 287.96875 L 362.496094 239.648438 Z M 314.179688 239.574219 " fill-opacity="1" fill-rule="nonzero"/></g></g></g><g clip-path="url(#736080b4bd)"><g clip-path="url(#25532f6a1f)"><g clip-path="url(#e4083aa64f)"><path fill="#c81129" d="M 44.304688 215.046875 L 55.257812 213.929688 L 61.269531 273.03125 L 2.171875 279.042969 L 1.058594 268.085938 L 49.121094 263.125 Z M 44.304688 215.046875 " fill-opacity="1" fill-rule="nonzero"/></g></g></g><g clip-path="url(#7a5aff295a)"><path fill="#c81129" d="M 162.796875 275.09375 L 170.585938 267.308594 L 212.589844 309.3125 L 170.585938 351.316406 L 162.796875 343.53125 L 196.914062 309.3125 Z M 162.796875 275.09375 " fill-opacity="1" fill-rule="nonzero"/></g><g clip-path="url(#29e009dec5)"><g clip-path="url(#49df43955e)"><g clip-path="url(#727baefb29)"><path fill="#c81129" d="M 234.855469 274.808594 L 238.527344 264.425781 L 294.53125 284.234375 L 274.722656 340.238281 L 264.339844 336.566406 L 280.386719 290.988281 Z M 234.855469 274.808594 " fill-opacity="1" fill-rule="nonzero"/></g></g></g><g clip-path="url(#97e6c82318)"><g clip-path="url(#6e05151dd6)"><g clip-path="url(#9ff7fdc40a)"><path fill="#c81129" d="M 92.503906 250.6875 L 102.886719 247.023438 L 122.664062 303.035156 L 66.648438 322.816406 L 62.984375 312.433594 L 108.523438 296.277344 Z M 92.503906 250.6875 " fill-opacity="1" fill-rule="nonzero"/></g></g></g></svg>